<?xml version="1.0" encoding="UTF-8" standalone="no"?>
<svg
   width="16"
   height="16"
   version="1.1"
   id="svg3"
   sodipodi:docname="microphone-sensitivity-low-symbolic.svg"
   inkscape:version="1.4.3 (0d15f75042, 2025-12-25)"
   xmlns:inkscape="http://www.inkscape.org/namespaces/inkscape"
   xmlns:sodipodi="http://sodipodi.sourceforge.net/DTD/sodipodi-0.dtd"
   xmlns="http://www.w3.org/2000/svg"
   xmlns:svg="http://www.w3.org/2000/svg">
  <sodipodi:namedview
     id="namedview3"
     pagecolor="#ffffff"
     bordercolor="#000000"
     borderopacity="0.25"
     inkscape:showpageshadow="2"
     inkscape:pageopacity="0.0"
     inkscape:pagecheckerboard="0"
     inkscape:deskcolor="#d1d1d1"
     inkscape:zoom="12.783165"
     inkscape:cx="0.89962073"
     inkscape:cy="1.1343044"
     inkscape:window-width="2540"
     inkscape:window-height="1326"
     inkscape:window-x="0"
     inkscape:window-y="0"
     inkscape:window-maximized="0"
     inkscape:current-layer="svg3" />
  <defs
     id="defs1">
    <style
       id="current-color-scheme"
       type="text/css">.ColorScheme-Text { color:#565656; } .ColorScheme-Highlight { color:#4285f4; }</style>
  </defs>
  <ellipse
     cx="12.266666"
     cy="5.0499997"
     opacity="0.35"
     fill="currentColor"
     class="ColorScheme-Text"
     id="circle1"
     rx="0.73333323"
     ry="0.73750001"
     style="stroke-width:0.735414" />
  <ellipse
     cx="12.266666"
     cy="8"
     opacity="0.35"
     fill="currentColor"
     class="ColorScheme-Text"
     id="circle2"
     rx="0.73333323"
     ry="0.73750001"
     style="stroke-width:0.735414" />
  <ellipse
     cx="12.266666"
     cy="10.95"
     fill="currentColor"
     class="ColorScheme-Text"
     id="circle3"
     rx="0.73333323"
     ry="0.73750001"
     style="stroke-width:0.735414" />
  <path
     d="M 6.3999994,2.1 C 5.1826663,2.1 4.1999998,3.0882499 4.1999998,4.3125 V 8 c 0,1.22425 0.9826665,2.2125 2.1999996,2.2125 1.2173332,0 2.1999998,-0.98825 2.1999998,-2.2125 V 4.3125 C 8.5999992,3.0882499 7.6173326,2.1 6.3999994,2.1 Z m 0,1.475 c 0.4062667,0 0.7333332,0.328925 0.7333332,0.7375 V 8 c 0,0.408575 -0.3270665,0.7375 -0.7333332,0.7375 C 5.9937329,8.7375 5.6666662,8.408575 5.6666662,8 V 4.3125 c 0,-0.408575 0.3270667,-0.7375 0.7333332,-0.7375 z M 2,8 c 0,2.190375 1.5839998,4.004773 3.6666662,4.358773 V 13.9 H 7.1333326 V 12.358773 C 9.215999,12.004773 10.799999,10.190375 10.799999,8 H 9.3333324 c 0,1.644625 -1.2979998,2.95 -2.933333,2.95 C 4.7646663,10.95 3.4666666,9.644625 3.4666666,8 Z"
     fill="currentColor"
     class="ColorScheme-Text"
     id="path3"
     style="stroke-width:0.735414" />
</svg>
