<?xml version="1.0" encoding="UTF-8" standalone="no"?>
<svg
   width="16"
   height="16"
   version="1.1"
   id="svg2"
   sodipodi:docname="microphone-hardware-disabled-symbolic.svg"
   inkscape:version="1.4.3 (0d15f75042, 2025-12-25)"
   xmlns:inkscape="http://www.inkscape.org/namespaces/inkscape"
   xmlns:sodipodi="http://sodipodi.sourceforge.net/DTD/sodipodi-0.dtd"
   xmlns="http://www.w3.org/2000/svg"
   xmlns:svg="http://www.w3.org/2000/svg">
  <defs
     id="defs2" />
  <sodipodi:namedview
     id="namedview2"
     pagecolor="#ffffff"
     bordercolor="#000000"
     borderopacity="0.25"
     inkscape:showpageshadow="2"
     inkscape:pageopacity="0.0"
     inkscape:pagecheckerboard="0"
     inkscape:deskcolor="#d1d1d1"
     inkscape:zoom="22.627417"
     inkscape:cx="-3.6902135"
     inkscape:cy="0.3314563"
     inkscape:window-width="2540"
     inkscape:window-height="1326"
     inkscape:window-x="0"
     inkscape:window-y="0"
     inkscape:window-maximized="0"
     inkscape:current-layer="svg2" />
  <g
     fill="#565656"
     id="g2"
     transform="matrix(0.6875,0,0,0.7375,2,2.1)">
    <path
       transform="translate(-212,-248)"
       d="m 220,248 c -1.662,0 -3,1.338 -3,3 v 4 h 2 v -4 c 0,-0.554 0.446,-1 1,-1 0.554,0 1,0.446 1,1 v 4 h 2 v -4 c 0,-1.662 -1.338,-3 -3,-3 z m -6,6 v 1 h 1.5 v -1 z m 10.5,0 v 1 h 1.5 v -1 z m -8.9531,6 c 0.88747,0.98341 2.0885,1.6807 3.4531,1.9102 V 264 h 2 v -2.0898 c 1.3646,-0.22943 2.5656,-0.92675 3.4531,-1.9102 h -2.4141 c -0.61304,0.30957 -1.2981,0.5 -2.0391,0.5 -0.741,0 -1.426,-0.19043 -2.0391,-0.5 h -2.4141 z"
       opacity="0.35"
       id="path1" />
    <path
       transform="translate(-212,-248)"
       d="m 212,256 h 16 v 2.9999 h -16 z"
       id="path2" />
  </g>
</svg>
