<?xml version="1.0" encoding="UTF-8" standalone="no"?>
<svg
   width="16"
   height="16"
   version="1.1"
   id="svg3"
   sodipodi:docname="microphone-sensitivity-medium-symbolic.svg"
   inkscape:version="1.4.3 (0d15f75042, 2025-12-25)"
   xmlns:inkscape="http://www.inkscape.org/namespaces/inkscape"
   xmlns:sodipodi="http://sodipodi.sourceforge.net/DTD/sodipodi-0.dtd"
   xmlns="http://www.w3.org/2000/svg"
   xmlns:svg="http://www.w3.org/2000/svg">
  <sodipodi:namedview
     id="namedview3"
     pagecolor="#ffffff"
     bordercolor="#000000"
     borderopacity="0.25"
     inkscape:showpageshadow="2"
     inkscape:pageopacity="0.0"
     inkscape:pagecheckerboard="0"
     inkscape:deskcolor="#d1d1d1"
     inkscape:zoom="22.627417"
     inkscape:cx="-2.7179417"
     inkscape:cy="0.37565048"
     inkscape:window-width="2540"
     inkscape:window-height="1326"
     inkscape:window-x="0"
     inkscape:window-y="0"
     inkscape:window-maximized="0"
     inkscape:current-layer="svg3" />
  <defs
     id="defs1">
    <style
       id="current-color-scheme"
       type="text/css">.ColorScheme-Text { color:#565656; } .ColorScheme-Highlight { color:#4285f4; }</style>
  </defs>
  <ellipse
     cx="12.266666"
     cy="5.0499997"
     opacity="0.35"
     fill="currentColor"
     class="ColorScheme-Text"
     id="circle1"
     rx="0.73333341"
     ry="0.73750001"
     style="stroke-width:0.735414" />
  <ellipse
     cx="12.266666"
     cy="8"
     fill="currentColor"
     class="ColorScheme-Text"
     id="circle2"
     rx="0.73333341"
     ry="0.73750001"
     style="stroke-width:0.735414" />
  <ellipse
     cx="12.266666"
     cy="10.950001"
     fill="currentColor"
     class="ColorScheme-Text"
     id="circle3"
     rx="0.73333341"
     ry="0.73750001"
     style="stroke-width:0.735414" />
  <path
     d="M 6.4000002,2.1 C 5.1826669,2.1 4.2000001,3.08825 4.2000001,4.3125 v 3.6875001 c 0,1.22425 0.9826668,2.2124999 2.2000001,2.2124999 1.2173335,0 2.2000002,-0.9882499 2.2000002,-2.2124999 V 4.3125 C 8.6000004,3.08825 7.6173337,2.1 6.4000002,2.1 Z m 0,1.475 c 0.4062667,0 0.7333334,0.328925 0.7333334,0.7375 v 3.6875001 c 0,0.408575 -0.3270667,0.7375 -0.7333334,0.7375 -0.4062667,0 -0.7333333,-0.328925 -0.7333333,-0.7375 V 4.3125 c 0,-0.408575 0.3270666,-0.7375 0.7333333,-0.7375 z M 2,8.0000001 C 2,10.190375 3.5840001,12.004772 5.6666669,12.358773 V 13.9 H 7.1333336 V 12.358773 C 9.2160005,12.004772 10.800001,10.190375 10.800001,8.0000001 H 9.3333338 C 9.3333338,9.6446254 8.0353337,10.95 6.4000002,10.95 4.7646668,10.95 3.4666667,9.6446254 3.4666667,8.0000001 Z"
     fill="currentColor"
     class="ColorScheme-Text"
     id="path3"
     style="stroke-width:0.735414" />
</svg>
