<?xml version="1.0" encoding="UTF-8" standalone="no"?>
<svg
   width="16"
   height="16"
   version="1.1"
   id="svg2"
   sodipodi:docname="microphone-disabled-symbolic.svg"
   inkscape:version="1.4.3 (0d15f75042, 2025-12-25)"
   xmlns:inkscape="http://www.inkscape.org/namespaces/inkscape"
   xmlns:sodipodi="http://sodipodi.sourceforge.net/DTD/sodipodi-0.dtd"
   xmlns="http://www.w3.org/2000/svg"
   xmlns:svg="http://www.w3.org/2000/svg">
  <defs
     id="defs2" />
  <sodipodi:namedview
     id="namedview2"
     pagecolor="#ffffff"
     bordercolor="#000000"
     borderopacity="0.25"
     inkscape:showpageshadow="2"
     inkscape:pageopacity="0.0"
     inkscape:pagecheckerboard="0"
     inkscape:deskcolor="#d1d1d1"
     inkscape:zoom="18.078125"
     inkscape:cx="-10.095073"
     inkscape:cy="4.5635264"
     inkscape:window-width="2540"
     inkscape:window-height="1326"
     inkscape:window-x="0"
     inkscape:window-y="0"
     inkscape:window-maximized="0"
     inkscape:current-layer="svg2" />
  <path
     d="M 7.4992697,2.1 C 6.5456248,2.1 5.738554,2.7124569 5.4367149,3.5692475 L 6.768955,4.9131938 V 4.3125369 c 0,-0.408575 0.3257203,-0.7375 0.7303147,-0.7375 0.4045943,0 0.7303147,0.328925 0.7303147,0.7375 v 2.0756937 l 1.4606294,1.475 V 4.3125369 c 0,-1.2243975 -0.9784757,-2.2125 -2.1909441,-2.2125 z M 5.3083256,5.0039062 V 8 c 0,1.2243975 0.9784756,2.2125 2.1909441,2.2125 0.8061214,0 1.5066392,-0.4378316 1.8871332,-1.0903937 l -1.1568185,-1.1682 V 8 c 0,0.408575 -0.3257204,0.7375 -0.7303147,0.7375 C 7.0946753,8.7375 6.768955,8.408575 6.768955,8 V 6.4789062 Z M 3.1173815,8 c 0,2.199889 1.5741933,4.01377 3.6515735,4.36305 V 13.9 H 8.2295844 V 12.36305 C 9.3387863,12.176544 10.304701,11.572598 10.963956,10.71518 L 9.9184371,9.659375 C 9.3938959,10.439945 8.5077613,10.95 7.4992697,10.95 5.8808923,10.95 4.5780109,9.6343 4.5780109,8 Z m 7.3031465,0 c 0,0.187561 -0.0171,0.3711395 -0.04992,0.5488033 l 1.166824,1.1783037 c 0.22176,-0.5301961 0.343759,-1.1134038 0.343759,-1.7270775 h -1.460629 z"
     fill="#565656"
     id="path1"
     style="stroke-width:0.733899" />
  <path
     d="M 2.7748639,2.4458875 2,3.228375 12.224406,13.553375 13,12.77015 Z"
     fill="#565656"
     id="path2"
     style="stroke-width:0.733899" />
</svg>
